<svg width="36" height="36" viewBox="0 0 36 36" fill="none" xmlns="http://www.w3.org/2000/svg">
<mask id="mask0_21_34" style="mask-type:alpha" maskUnits="userSpaceOnUse" x="0" y="0" width="36" height="36">
<rect width="36" height="36" fill="#D9D9D9"/>
</mask>
<g mask="url(#mask0_21_34)">
<path d="M20.5513 21.15C19.7474 20.35 19.0126 19.5125 18.3469 18.6375C17.6812 17.7625 17.072 16.8375 16.5193 15.8625C16.3937 16.2125 16.3121 16.5688 16.2744 16.9313C16.2367 17.2938 16.2179 17.65 16.2179 18C16.2179 20.075 16.9464 21.8375 18.4034 23.2875C19.8605 24.7375 21.6316 25.4625 23.7167 25.4625C24.0684 25.4625 24.4263 25.4375 24.7906 25.3875C25.1549 25.3375 25.5128 25.2625 25.8645 25.1625C24.8848 24.6125 23.9553 24.0063 23.0761 23.3438C22.1968 22.6812 21.3552 21.95 20.5513 21.15ZM22.6992 19.05C23.9804 20.325 25.4124 21.4187 26.995 22.3312C28.5777 23.2437 30.2734 23.95 32.0821 24.45C31.0773 25.725 29.8463 26.7188 28.3893 27.4313C26.9322 28.1438 25.3872 28.5 23.7543 28.5C20.8151 28.5 18.3218 27.4812 16.2744 25.4437C14.227 23.4062 13.2033 20.925 13.2033 18C13.2033 16.375 13.5613 14.8375 14.2772 13.3875C14.9932 11.9375 15.9918 10.7125 17.273 9.7125C17.7754 11.5125 18.4851 13.2 19.402 14.775C20.319 16.35 21.418 17.775 22.6992 19.05ZM33.6271 21.75C33.1247 21.625 32.6285 21.4875 32.1386 21.3375C31.6488 21.1875 31.1652 21.0125 30.6879 20.8125C30.8888 20.3625 31.0333 19.9062 31.1212 19.4438C31.2091 18.9813 31.2531 18.5 31.2531 18C31.2531 15.925 30.5183 14.1563 29.0487 12.6938C27.5791 11.2313 25.8017 10.5 23.7167 10.5C23.2142 10.5 22.7306 10.5437 22.2659 10.6313C21.8011 10.7188 21.3427 10.8625 20.8905 11.0625C20.6895 10.5875 20.5199 10.1125 20.3818 9.6375C20.2436 9.1625 20.1117 8.675 19.9861 8.175C20.589 7.95 21.2045 7.78125 21.8325 7.66875C22.4606 7.55625 23.1012 7.5 23.7543 7.5C26.6936 7.5 29.1869 8.51875 31.2343 10.5562C33.2817 12.5938 34.3054 15.075 34.3054 18C34.3054 18.65 34.2489 19.2875 34.1358 19.9125C34.0228 20.5375 33.8532 21.15 33.6271 21.75ZM22.2094 4.5V0H25.2239V4.5H22.2094ZM22.2094 36V31.5H25.2239V36H22.2094ZM34.3807 9.525L32.2328 7.3875L35.4358 4.2375L37.5837 6.3375L34.3807 9.525ZM11.9975 31.7625L9.84957 29.6625L13.0526 26.475L15.2005 28.6125L11.9975 31.7625ZM37.2823 19.5V16.5H41.8041V19.5H37.2823ZM5.62915 19.5V16.5H10.151V19.5H5.62915ZM35.4358 31.8L32.2328 28.6125L34.3807 26.475L37.5461 29.6625L35.4358 31.8ZM13.0526 9.525L9.88725 6.3375L11.9975 4.2L15.2005 7.3875L13.0526 9.525Z" fill="white"/>
</g>
</svg>
